<?xml version="1.0" encoding="UTF-8" ?>
<svg width="2309pt" height="1147pt" viewBox="0.00 0.00 2309.30 1146.59" xmlns="http://www.w3.org/2000/svg" xmlns:xlink="http://www.w3.org/1999/xlink">
<g id="graph0" class="graph" transform="scale(1 1) rotate(0) translate(4 1142.587)">
<title>%0</title>
<polygon fill="#ffffff" stroke="transparent" points="-4,4 -4,-1142.587 2305.2993,-1142.587 2305.2993,4 -4,4"/>
<!-- 0 -->
<g id="node1" class="node">
<title>0</title>
<ellipse fill="none" stroke="#000000" cx="1367.7708" cy="-158.1881" rx="329.8095" ry="40.96"/>
<text text-anchor="start" x="1142.6697" y="-170.3881" font-family="Times,serif" font-size="14.00" fill="#000000">Query (Object)</text>
<text text-anchor="middle" x="1367.7708" y="-137.5881" font-family="Times,serif" font-size="14.00" fill="#000000">[Character, Droid, Episode, Human, ID, Review, SearchResult, Starship, String]</text>
</g>
<!-- 11 -->
<g id="node12" class="node">
<title>11</title>
<ellipse fill="none" stroke="#000000" cx="1734.7708" cy="-40.7294" rx="138.7632" ry="40.96"/>
<text text-anchor="start" x="1644.5667" y="-52.9294" font-family="Times,serif" font-size="14.00" fill="#000000">schema (Schema)</text>
<text text-anchor="middle" x="1734.7708" y="-20.1294" font-family="Times,serif" font-size="14.00" fill="#000000">[Mutation, Query, Subscription]</text>
</g>
<!-- 0&#45;&gt;11 -->
<g id="edge4" class="edge">
<title>0-&gt;11</title>
<path fill="none" stroke="#000000" d="M1486.6718,-120.1337C1533.1911,-105.2451 1586.0598,-88.3245 1631.0057,-73.9395"/>
<polygon fill="#000000" stroke="#000000" points="1632.3086,-77.1975 1640.7658,-70.8158 1630.1748,-70.5306 1632.3086,-77.1975"/>
</g>
<!-- 1 -->
<g id="node2" class="node">
<title>1</title>
<ellipse fill="none" stroke="#000000" cx="1941.7708" cy="-628.0229" rx="141.1368" ry="40.96"/>
<text text-anchor="start" x="1850.0204" y="-640.2229" font-family="Times,serif" font-size="14.00" fill="#000000">Mutation (Object)</text>
<text text-anchor="middle" x="1941.7708" y="-607.4229" font-family="Times,serif" font-size="14.00" fill="#000000">[Episode, Review, ReviewInput]</text>
</g>
<!-- 1&#45;&gt;11 -->
<g id="edge3" class="edge">
<title>1-&gt;11</title>
<path fill="none" stroke="#000000" d="M1923.0344,-587.4083C1903.5219,-541.3274 1875.7708,-463.4286 1875.7708,-393.1055 1875.7708,-393.1055 1875.7708,-393.1055 1875.7708,-275.6468 1875.7708,-201.9036 1824.0605,-131.3231 1783.2704,-87.1193"/>
<polygon fill="#000000" stroke="#000000" points="1785.7119,-84.6066 1776.3129,-79.7169 1780.6113,-89.4007 1785.7119,-84.6066"/>
</g>
<!-- 2 -->
<g id="node3" class="node">
<title>2</title>
<ellipse fill="none" stroke="#000000" cx="1647.7708" cy="-628.0229" rx="96.6237" ry="40.96"/>
<text text-anchor="start" x="1587.3146" y="-640.2229" font-family="Times,serif" font-size="14.00" fill="#000000">Subscription (Object)</text>
<text text-anchor="middle" x="1647.7708" y="-607.4229" font-family="Times,serif" font-size="14.00" fill="#000000">[Episode, Review]</text>
</g>
<!-- 2&#45;&gt;11 -->
<g id="edge5" class="edge">
<title>2-&gt;11</title>
<path fill="none" stroke="#000000" d="M1672.2367,-588.5125C1697.9692,-543.1099 1734.7708,-465.5185 1734.7708,-393.1055 1734.7708,-393.1055 1734.7708,-393.1055 1734.7708,-275.6468 1734.7708,-212.193 1734.7708,-139.0982 1734.7708,-91.5183"/>
<polygon fill="#000000" stroke="#000000" points="1738.2709,-91.4707 1734.7708,-81.4707 1731.2709,-91.4708 1738.2709,-91.4707"/>
</g>
<!-- 3 -->
<g id="node4" class="node">
<title>3</title>
<ellipse fill="none" stroke="#000000" cx="1012.7708" cy="-745.4816" rx="342.8797" ry="40.96"/>
<text text-anchor="start" x="778.2757" y="-757.6816" font-family="Times,serif" font-size="14.00" fill="#000000">Character (Interface)</text>
<text text-anchor="middle" x="1012.7708" y="-724.8816" font-family="Times,serif" font-size="14.00" fill="#000000">[@deprecated, @test, Bool, Character, Episode, FriendsConnection, ID, Int, String]</text>
</g>
<!-- 3&#45;&gt;0 -->
<g id="edge42" class="edge">
<title>3-&gt;0</title>
<path fill="none" stroke="#000000" d="M1177.271,-709.6618C1317.8778,-669.1866 1510.6965,-587.8156 1596.7708,-433.8348 1647.1045,-343.7915 1536.1755,-254.7561 1451.7622,-203.195"/>
<polygon fill="#000000" stroke="#000000" points="1453.5384,-200.179 1443.1665,-198.0167 1449.9262,-206.175 1453.5384,-200.179"/>
</g>
<!-- 3&#45;&gt;3 -->
<g id="edge36" class="edge">
<title>3-&gt;3</title>
<path fill="none" stroke="#000000" d="M1320.1812,-763.5726C1352.7813,-760.0646 1373.7107,-754.0343 1373.7107,-745.4816 1373.7107,-737.8643 1357.1092,-732.2478 1330.4472,-728.6321"/>
<polygon fill="#000000" stroke="#000000" points="1330.5291,-725.1166 1320.1812,-727.3905 1329.6886,-732.0659 1330.5291,-725.1166"/>
</g>
<!-- 13 -->
<g id="node14" class="node">
<title>13</title>
<ellipse fill="none" stroke="#000000" cx="754.7708" cy="-393.1055" rx="347.0498" ry="40.96"/>
<text text-anchor="start" x="517.2104" y="-405.3055" font-family="Times,serif" font-size="14.00" fill="#000000">Human (Object)</text>
<text text-anchor="middle" x="754.7708" y="-372.5055" font-family="Times,serif" font-size="14.00" fill="#000000">[Character, Episode, Float, FriendsConnection, ID, Int, LengthUnit, Starship, String]</text>
</g>
<!-- 3&#45;&gt;13 -->
<g id="edge49" class="edge">
<title>3-&gt;13</title>
<path fill="none" stroke="#000000" d="M945.3519,-705.351C930.5638,-694.6392 915.7611,-682.2453 903.7708,-668.7522 842.8425,-600.1874 797.5363,-502.363 773.7048,-443.5668"/>
<polygon fill="#000000" stroke="#000000" points="776.8901,-442.1058 769.9254,-434.1218 770.3911,-444.7064 776.8901,-442.1058"/>
</g>
<!-- 14 -->
<g id="node15" class="node">
<title>14</title>
<ellipse fill="none" stroke="#000000" cx="1353.7708" cy="-393.1055" rx="233.9819" ry="40.96"/>
<text text-anchor="start" x="1196.3142" y="-405.3055" font-family="Times,serif" font-size="14.00" fill="#000000">Droid (Object)</text>
<text text-anchor="middle" x="1353.7708" y="-372.5055" font-family="Times,serif" font-size="14.00" fill="#000000">[Character, Episode, FriendsConnection, ID, Int, String]</text>
</g>
<!-- 3&#45;&gt;14 -->
<g id="edge13" class="edge">
<title>3-&gt;14</title>
<path fill="none" stroke="#000000" d="M1091.048,-705.6791C1150.5124,-671.862 1230.3975,-618.1945 1280.7708,-551.2935 1305.3378,-518.6661 1324.2984,-476.4473 1336.7319,-443.8329"/>
<polygon fill="#000000" stroke="#000000" points="1340.1686,-444.6335 1340.38,-434.0408 1333.609,-442.1897 1340.1686,-444.6335"/>
</g>
<!-- 15 -->
<g id="node16" class="node">
<title>15</title>
<ellipse fill="none" stroke="#000000" cx="1103.7708" cy="-510.5642" rx="167.9781" ry="40.96"/>
<text text-anchor="start" x="992.9846" y="-522.7642" font-family="Times,serif" font-size="14.00" fill="#000000">FriendsConnection (Object)</text>
<text text-anchor="middle" x="1103.7708" y="-489.9642" font-family="Times,serif" font-size="14.00" fill="#000000">[Character, FriendsEdge, Int, PageInfo]</text>
</g>
<!-- 3&#45;&gt;15 -->
<g id="edge6" class="edge">
<title>3-&gt;15</title>
<path fill="none" stroke="#000000" d="M1076.4609,-705.3514C1088.5819,-695.1038 1099.6677,-682.9011 1106.7708,-668.7522 1123.3292,-635.7694 1119.2655,-593.9748 1112.9222,-561.6297"/>
<polygon fill="#000000" stroke="#000000" points="1116.2741,-560.5579 1110.8059,-551.4832 1109.4215,-561.9872 1116.2741,-560.5579"/>
</g>
<!-- 16 -->
<g id="node17" class="node">
<title>16</title>
<ellipse fill="none" stroke="#000000" cx="1009.7708" cy="-628.0229" rx="96.604" ry="40.96"/>
<text text-anchor="start" x="949.3216" y="-640.2229" font-family="Times,serif" font-size="14.00" fill="#000000">FriendsEdge (Object)</text>
<text text-anchor="middle" x="1009.7708" y="-607.4229" font-family="Times,serif" font-size="14.00" fill="#000000">[Character, ID]</text>
</g>
<!-- 3&#45;&gt;16 -->
<g id="edge19" class="edge">
<title>3-&gt;16</title>
<path fill="none" stroke="#000000" d="M1011.73,-704.7298C1011.5207,-696.5333 1011.2981,-687.8198 1011.081,-679.3175"/>
<polygon fill="#000000" stroke="#000000" points="1014.5743,-679.0077 1010.82,-669.1003 1007.5766,-679.1865 1014.5743,-679.0077"/>
</g>
<!-- 4 -->
<g id="node5" class="node">
<title>4</title>
<ellipse fill="none" stroke="#000000" cx="521.7708" cy="-510.5642" rx="190.1408" ry="40.96"/>
<text text-anchor="start" x="395.194" y="-522.7642" font-family="Times,serif" font-size="14.00" fill="#000000">Starship (Object)</text>
<text text-anchor="middle" x="521.7708" y="-489.9642" font-family="Times,serif" font-size="14.00" fill="#000000">[@deprecated, Float, ID, LengthUnit, String]</text>
</g>
<!-- 4&#45;&gt;0 -->
<g id="edge48" class="edge">
<title>4-&gt;0</title>
<path fill="none" stroke="#000000" d="M437.3624,-474.0566C421.8958,-463.4028 407.8064,-450.1209 398.7708,-433.8348 381.2069,-402.1768 375.9094,-380.4488 398.7708,-352.3761 445.057,-295.5389 861.3336,-228.053 1133.0146,-189.4617"/>
<polygon fill="#000000" stroke="#000000" points="1133.6094,-192.9125 1143.0196,-188.0443 1132.6275,-185.9817 1133.6094,-192.9125"/>
</g>
<!-- 4&#45;&gt;13 -->
<g id="edge53" class="edge">
<title>4-&gt;13</title>
<path fill="none" stroke="#000000" d="M596.4549,-472.9148C618.7818,-461.6595 643.4712,-449.2132 666.579,-437.5643"/>
<polygon fill="#000000" stroke="#000000" points="668.3343,-440.599 675.6883,-432.9721 665.1832,-434.3483 668.3343,-440.599"/>
</g>
<!-- 24 -->
<g id="node25" class="node">
<title>24</title>
<ellipse fill="none" stroke="#000000" cx="303.7708" cy="-275.6468" rx="140.0907" ry="40.96"/>
<text text-anchor="start" x="212.5671" y="-287.8468" font-family="Times,serif" font-size="14.00" fill="#000000">SearchResult (Union)</text>
<text text-anchor="middle" x="303.7708" y="-255.0468" font-family="Times,serif" font-size="14.00" fill="#000000">[@test, Droid, Human, Starship]</text>
</g>
<!-- 4&#45;&gt;24 -->
<g id="edge57" class="edge">
<title>4-&gt;24</title>
<path fill="none" stroke="#000000" d="M422.6957,-475.5728C401.8849,-464.6974 381.5033,-450.9402 365.7708,-433.8348 338.1461,-403.7992 322.2721,-360.0295 313.516,-326.1412"/>
<polygon fill="#000000" stroke="#000000" points="316.9118,-325.2931 311.1266,-316.4172 310.114,-326.9635 316.9118,-325.2931"/>
</g>
<!-- 5 -->
<g id="node6" class="node">
<title>5</title>
<ellipse fill="none" stroke="#000000" cx="690.7708" cy="-980.399" rx="109.3843" ry="40.96"/>
<text text-anchor="start" x="621.5604" y="-992.599" font-family="Times,serif" font-size="14.00" fill="#000000">@deprecated (Directive)</text>
<text text-anchor="middle" x="690.7708" y="-959.799" font-family="Times,serif" font-size="14.00" fill="#000000">[String]</text>
</g>
<!-- 5&#45;&gt;3 -->
<g id="edge34" class="edge">
<title>5-&gt;3</title>
<path fill="none" stroke="#000000" d="M728.7516,-942.1197C763.5757,-908.2092 817.5231,-858.5813 869.7708,-822.2109 886.016,-810.9024 904.1145,-800.022 921.8255,-790.1865"/>
<polygon fill="#000000" stroke="#000000" points="923.9494,-793.014 931.04,-785.1417 920.5878,-786.874 923.9494,-793.014"/>
</g>
<!-- 5&#45;&gt;4 -->
<g id="edge1" class="edge">
<title>5-&gt;4</title>
<path fill="none" stroke="#000000" d="M630.1646,-946.4221C550.6025,-897.4408 416.4904,-798.4407 377.7708,-668.7522 367.4136,-634.0615 359.1382,-618.3345 377.7708,-587.2935 386.5456,-572.6752 399.154,-560.6894 413.3084,-550.9063"/>
<polygon fill="#000000" stroke="#000000" points="415.3176,-553.7749 421.8037,-545.3974 411.509,-547.9017 415.3176,-553.7749"/>
</g>
<!-- 9 -->
<g id="node10" class="node">
<title>9</title>
<ellipse fill="none" stroke="#000000" cx="1717.7708" cy="-862.9403" rx="162.0829" ry="40.96"/>
<text text-anchor="start" x="1611.1902" y="-875.1403" font-family="Times,serif" font-size="14.00" fill="#000000">ColorInput (InputObject)</text>
<text text-anchor="middle" x="1717.7708" y="-842.3403" font-family="Times,serif" font-size="14.00" fill="#000000">[@deprecated, @test, ColorInput, Int]</text>
</g>
<!-- 5&#45;&gt;9 -->
<g id="edge25" class="edge">
<title>5-&gt;9</title>
<path fill="none" stroke="#000000" d="M796.7983,-970.0387C882.3451,-961.7161 1005.7916,-949.7886 1113.7708,-939.6696 1289.285,-923.2217 1334.2539,-928.5613 1508.7708,-903.6696 1533.1635,-900.1904 1559.0221,-895.762 1583.9296,-891.1144"/>
<polygon fill="#000000" stroke="#000000" points="1584.6148,-894.547 1593.7926,-889.2537 1583.3171,-887.6683 1584.6148,-894.547"/>
</g>
<!-- 21 -->
<g id="node22" class="node">
<title>21</title>
<ellipse fill="none" stroke="#000000" cx="1401.7708" cy="-862.9403" rx="97.9037" ry="40.96"/>
<text text-anchor="start" x="1340.6853" y="-875.1403" font-family="Times,serif" font-size="14.00" fill="#000000">Episode (Enum)</text>
<text text-anchor="middle" x="1401.7708" y="-842.3403" font-family="Times,serif" font-size="14.00" fill="#000000">[@deprecated, @test]</text>
</g>
<!-- 5&#45;&gt;21 -->
<g id="edge40" class="edge">
<title>5-&gt;21</title>
<path fill="none" stroke="#000000" d="M791.0047,-963.8755C885.1796,-948.3471 1030.0408,-924.4513 1155.7708,-903.6696 1203.5187,-895.7775 1256.4774,-887.011 1300.9899,-879.6389"/>
<polygon fill="#000000" stroke="#000000" points="1301.6449,-883.0782 1310.9386,-877.9911 1300.501,-876.1722 1301.6449,-883.0782"/>
</g>
<!-- 6 -->
<g id="node7" class="node">
<title>6</title>
<ellipse fill="none" stroke="#000000" cx="137.7708" cy="-393.1055" rx="137.5421" ry="40.96"/>
<text text-anchor="start" x="48.3521" y="-405.3055" font-family="Times,serif" font-size="14.00" fill="#000000">SearchResult (Union extension)</text>
<text text-anchor="middle" x="137.7708" y="-372.5055" font-family="Times,serif" font-size="14.00" fill="#000000">[Ewok, SearchResult]</text>
</g>
<!-- 6&#45;&gt;24 -->
<g id="edge12" class="edge">
<title>6-&gt;24</title>
<path fill="none" stroke="#000000" d="M191.208,-355.2942C207.3502,-343.8724 225.2083,-331.2362 241.8547,-319.4575"/>
<polygon fill="#000000" stroke="#000000" points="244.2923,-322.0204 250.4338,-313.3871 240.249,-316.3062 244.2923,-322.0204"/>
</g>
<!-- 7 -->
<g id="node8" class="node">
<title>7</title>
<ellipse fill="none" stroke="#000000" cx="731.7708" cy="-628.0229" rx="87.4425" ry="18"/>
<text text-anchor="middle" x="731.7708" y="-623.8229" font-family="Times,serif" font-size="14.00" fill="#000000">LengthUnit (Enum)</text>
</g>
<!-- 7&#45;&gt;4 -->
<g id="edge2" class="edge">
<title>7-&gt;4</title>
<path fill="none" stroke="#000000" d="M701.235,-610.9434C674.4935,-595.9861 634.4758,-573.6031 599.0103,-553.7663"/>
<polygon fill="#000000" stroke="#000000" points="600.5387,-550.6109 590.1026,-548.784 597.1216,-556.7202 600.5387,-550.6109"/>
</g>
<!-- 7&#45;&gt;13 -->
<g id="edge52" class="edge">
<title>7-&gt;13</title>
<path fill="none" stroke="#000000" d="M733.5374,-609.9794C736.9693,-574.9273 744.649,-496.4882 749.7696,-444.1873"/>
<polygon fill="#000000" stroke="#000000" points="753.2664,-444.3898 750.7576,-434.0963 746.2997,-443.7076 753.2664,-444.3898"/>
</g>
<!-- 8 -->
<g id="node9" class="node">
<title>8</title>
<ellipse fill="none" stroke="#000000" cx="2120.7708" cy="-745.4816" rx="162.557" ry="40.96"/>
<text text-anchor="start" x="2013.8458" y="-757.6816" font-family="Times,serif" font-size="14.00" fill="#000000">ReviewInput (InputObject)</text>
<text text-anchor="middle" x="2120.7708" y="-724.8816" font-family="Times,serif" font-size="14.00" fill="#000000">[ColorInput, Int, ReviewInput, String]</text>
</g>
<!-- 8&#45;&gt;1 -->
<g id="edge22" class="edge">
<title>8-&gt;1</title>
<path fill="none" stroke="#000000" d="M2062.6547,-707.3461C2045.0213,-695.7752 2025.527,-682.9831 2007.4344,-671.1109"/>
<polygon fill="#000000" stroke="#000000" points="2008.9604,-667.926 1998.6795,-665.3659 2005.12,-673.7785 2008.9604,-667.926"/>
</g>
<!-- 8&#45;&gt;8 -->
<g id="edge33" class="edge">
<title>8-&gt;8</title>
<path fill="none" stroke="#000000" d="M2262.3046,-765.6054C2285.4161,-762.7246 2301.2993,-756.0167 2301.2993,-745.4816 2301.2993,-736.5925 2289.9918,-730.4281 2272.5757,-726.9884"/>
<polygon fill="#000000" stroke="#000000" points="2272.7298,-723.4691 2262.3046,-725.3578 2271.6321,-730.3825 2272.7298,-723.4691"/>
</g>
<!-- 9&#45;&gt;8 -->
<g id="edge32" class="edge">
<title>9-&gt;8</title>
<path fill="none" stroke="#000000" d="M1823.6544,-832.0794C1879.3188,-815.8554 1947.6568,-795.9375 2004.7537,-779.296"/>
<polygon fill="#000000" stroke="#000000" points="2005.9245,-782.6005 2014.5456,-776.4421 2003.9657,-775.8801 2005.9245,-782.6005"/>
</g>
<!-- 9&#45;&gt;9 -->
<g id="edge27" class="edge">
<title>9-&gt;9</title>
<path fill="none" stroke="#000000" d="M1858.5504,-883.1102C1881.8011,-880.2554 1897.8123,-873.5321 1897.8123,-862.9403 1897.8123,-854.0034 1886.4137,-847.8206 1868.8854,-844.3919"/>
<polygon fill="#000000" stroke="#000000" points="1868.9721,-840.8627 1858.5504,-842.7703 1867.887,-847.7781 1868.9721,-840.8627"/>
</g>
<!-- 10 -->
<g id="node11" class="node">
<title>10</title>
<ellipse fill="none" stroke="#000000" cx="1012.7708" cy="-862.9403" rx="134.3616" ry="40.96"/>
<text text-anchor="start" x="925.7139" y="-875.1403" font-family="Times,serif" font-size="14.00" fill="#000000">Character (Interface extension)</text>
<text text-anchor="middle" x="1012.7708" y="-842.3403" font-family="Times,serif" font-size="14.00" fill="#000000">[Boolean, Character]</text>
</g>
<!-- 10&#45;&gt;3 -->
<g id="edge28" class="edge">
<title>10-&gt;3</title>
<path fill="none" stroke="#000000" d="M1012.7708,-822.1885C1012.7708,-813.992 1012.7708,-805.2785 1012.7708,-796.7762"/>
<polygon fill="#000000" stroke="#000000" points="1016.2709,-796.559 1012.7708,-786.559 1009.2709,-796.5591 1016.2709,-796.559"/>
</g>
<!-- 12 -->
<g id="node13" class="node">
<title>12</title>
<ellipse fill="none" stroke="#000000" cx="1202.7708" cy="-1097.8577" rx="66.0077" ry="18"/>
<text text-anchor="middle" x="1202.7708" y="-1093.6577" font-family="Times,serif" font-size="14.00" fill="#000000">Letter (Enum)</text>
</g>
<!-- 25 -->
<g id="node26" class="node">
<title>25</title>
<ellipse fill="none" stroke="#000000" cx="1202.7708" cy="-980.399" rx="80.1414" ry="40.96"/>
<text text-anchor="start" x="1154.1523" y="-992.599" font-family="Times,serif" font-size="14.00" fill="#000000">@test (Directive)</text>
<text text-anchor="middle" x="1202.7708" y="-959.799" font-family="Times,serif" font-size="14.00" fill="#000000">[Letter]</text>
</g>
<!-- 12&#45;&gt;25 -->
<g id="edge30" class="edge">
<title>12-&gt;25</title>
<path fill="none" stroke="#000000" d="M1202.7708,-1079.7622C1202.7708,-1066.744 1202.7708,-1048.5012 1202.7708,-1031.1947"/>
<polygon fill="#000000" stroke="#000000" points="1206.2709,-1031.1596 1202.7708,-1021.1597 1199.2709,-1031.1597 1206.2709,-1031.1596"/>
</g>
<!-- 13&#45;&gt;0 -->
<g id="edge45" class="edge">
<title>13-&gt;0</title>
<path fill="none" stroke="#000000" d="M856.6835,-354.0499C967.2009,-311.6968 1143.0302,-244.3145 1256.9243,-200.6673"/>
<polygon fill="#000000" stroke="#000000" points="1258.2949,-203.8903 1266.3802,-197.0436 1255.7899,-197.3539 1258.2949,-203.8903"/>
</g>
<!-- 13&#45;&gt;24 -->
<g id="edge56" class="edge">
<title>13-&gt;24</title>
<path fill="none" stroke="#000000" d="M612.0716,-355.9408C549.491,-339.6423 477.0304,-320.7706 418.0873,-305.4194"/>
<polygon fill="#000000" stroke="#000000" points="418.9322,-302.0228 408.3729,-302.8894 417.1679,-308.7968 418.9322,-302.0228"/>
</g>
<!-- 14&#45;&gt;0 -->
<g id="edge43" class="edge">
<title>14-&gt;0</title>
<path fill="none" stroke="#000000" d="M1356.2095,-352.186C1358.5761,-312.4742 1362.1748,-252.0882 1364.7278,-209.2493"/>
<polygon fill="#000000" stroke="#000000" points="1368.2355,-209.2226 1365.3367,-199.032 1361.2479,-208.8061 1368.2355,-209.2226"/>
</g>
<!-- 14&#45;&gt;24 -->
<g id="edge55" class="edge">
<title>14-&gt;24</title>
<path fill="none" stroke="#000000" d="M1189.9651,-364.0142C1163.5337,-359.7918 1136.4305,-355.742 1110.7708,-352.3761 880.6377,-322.1883 612.0928,-299.0512 450.1396,-286.4092"/>
<polygon fill="#000000" stroke="#000000" points="450.3499,-282.915 440.1086,-285.6289 449.807,-289.8939 450.3499,-282.915"/>
</g>
<!-- 15&#45;&gt;3 -->
<g id="edge38" class="edge">
<title>15-&gt;3</title>
<path fill="none" stroke="#000000" d="M1125.1827,-551.1469C1136.0971,-584.506 1143.183,-632.0767 1124.7708,-668.7522 1119.0871,-680.0738 1110.8533,-690.1493 1101.3828,-698.9741"/>
<polygon fill="#000000" stroke="#000000" points="1098.7998,-696.5819 1093.5476,-705.7833 1103.3915,-701.8655 1098.7998,-696.5819"/>
</g>
<!-- 15&#45;&gt;13 -->
<g id="edge51" class="edge">
<title>15-&gt;13</title>
<path fill="none" stroke="#000000" d="M1005.1609,-477.3762C965.8904,-464.1594 920.2514,-448.7992 878.7766,-434.8406"/>
<polygon fill="#000000" stroke="#000000" points="879.7595,-431.4785 869.1654,-431.6058 877.5266,-438.1129 879.7595,-431.4785"/>
</g>
<!-- 15&#45;&gt;14 -->
<g id="edge15" class="edge">
<title>15-&gt;14</title>
<path fill="none" stroke="#000000" d="M1180.819,-474.3642C1206.8563,-462.131 1236.1654,-448.3606 1263.1554,-435.6798"/>
<polygon fill="#000000" stroke="#000000" points="1264.649,-438.8451 1272.2115,-431.4249 1261.6723,-432.5095 1264.649,-438.8451"/>
</g>
<!-- 16&#45;&gt;15 -->
<g id="edge7" class="edge">
<title>16-&gt;15</title>
<path fill="none" stroke="#000000" d="M1040.8105,-589.237C1048.5746,-579.5352 1056.9982,-569.0094 1065.0828,-558.9072"/>
<polygon fill="#000000" stroke="#000000" points="1067.9592,-560.9146 1071.4748,-550.92 1062.4938,-556.5407 1067.9592,-560.9146"/>
</g>
<!-- 17 -->
<g id="node18" class="node">
<title>17</title>
<ellipse fill="none" stroke="#000000" cx="557.7708" cy="-745.4816" rx="94.2005" ry="40.96"/>
<text text-anchor="start" x="499.2319" y="-757.6816" font-family="Times,serif" font-size="14.00" fill="#000000">PageInfo (Object)</text>
<text text-anchor="middle" x="557.7708" y="-724.8816" font-family="Times,serif" font-size="14.00" fill="#000000">[@test, Boolean, ID]</text>
</g>
<!-- 17&#45;&gt;15 -->
<g id="edge8" class="edge">
<title>17-&gt;15</title>
<path fill="none" stroke="#000000" d="M625.3597,-716.9328C637.0528,-712.5198 649.1778,-708.2679 660.7708,-704.7522 733.4305,-682.7178 761.7364,-706.2273 827.7708,-668.7522 870.8338,-644.3136 862.7156,-614.9724 903.7708,-587.2935 928.7742,-570.4366 958.0028,-556.5604 986.2718,-545.468"/>
<polygon fill="#000000" stroke="#000000" points="987.7281,-548.6582 995.8144,-541.8126 985.2241,-542.1214 987.7281,-548.6582"/>
</g>
<!-- 18 -->
<g id="node19" class="node">
<title>18</title>
<ellipse fill="none" stroke="#000000" cx="1772.7708" cy="-745.4816" rx="167.4717" ry="40.96"/>
<text text-anchor="start" x="1662.5173" y="-757.6816" font-family="Times,serif" font-size="14.00" fill="#000000">Review (Object)</text>
<text text-anchor="middle" x="1772.7708" y="-724.8816" font-family="Times,serif" font-size="14.00" fill="#000000">[@test, DateTime, Episode, Int, String]</text>
</g>
<!-- 18&#45;&gt;0 -->
<g id="edge46" class="edge">
<title>18-&gt;0</title>
<path fill="none" stroke="#000000" d="M1777.8494,-704.6202C1787.3533,-608.2363 1796.4744,-365.047 1667.7708,-234.9174 1651.9113,-218.8821 1614.2214,-205.1157 1570.7148,-193.8533"/>
<polygon fill="#000000" stroke="#000000" points="1571.3029,-190.3921 1560.7506,-191.3411 1569.5915,-197.1797 1571.3029,-190.3921"/>
</g>
<!-- 18&#45;&gt;1 -->
<g id="edge21" class="edge">
<title>18-&gt;1</title>
<path fill="none" stroke="#000000" d="M1828.1078,-707.0212C1844.3389,-695.7402 1862.2063,-683.322 1878.872,-671.7389"/>
<polygon fill="#000000" stroke="#000000" points="1881.2486,-674.3495 1887.4626,-665.7683 1877.2536,-668.6015 1881.2486,-674.3495"/>
</g>
<!-- 18&#45;&gt;2 -->
<g id="edge24" class="edge">
<title>18-&gt;2</title>
<path fill="none" stroke="#000000" d="M1730.7999,-706.0428C1719.3964,-695.3273 1706.9673,-683.6479 1695.2811,-672.6668"/>
<polygon fill="#000000" stroke="#000000" points="1697.4114,-669.8658 1687.7271,-665.5686 1692.6179,-674.967 1697.4114,-669.8658"/>
</g>
<!-- 19 -->
<g id="node20" class="node">
<title>19</title>
<ellipse fill="none" stroke="#000000" cx="1646.7708" cy="-1097.8577" rx="125.2149" ry="40.96"/>
<text text-anchor="start" x="1566.3065" y="-1110.0577" font-family="Times,serif" font-size="14.00" fill="#000000">DateTime (Scalar extension)</text>
<text text-anchor="middle" x="1646.7708" y="-1077.2577" font-family="Times,serif" font-size="14.00" fill="#000000">[@test, DateTime]</text>
</g>
<!-- 19&#45;&gt;25 -->
<g id="edge16" class="edge">
<title>19-&gt;25</title>
<path fill="none" stroke="#000000" d="M1533.9799,-1079.9215C1463.3634,-1067.1189 1371.0506,-1047.4909 1291.7708,-1021.1283 1284.5149,-1018.7155 1277.0598,-1015.8925 1269.6998,-1012.8779"/>
<polygon fill="#000000" stroke="#000000" points="1271.0242,-1009.638 1260.4502,-1008.9736 1268.302,-1016.087 1271.0242,-1009.638"/>
</g>
<!-- 27 -->
<g id="node28" class="node">
<title>27</title>
<ellipse fill="none" stroke="#000000" cx="1998.7708" cy="-862.9403" rx="82.7355" ry="18"/>
<text text-anchor="middle" x="1998.7708" y="-858.7403" font-family="Times,serif" font-size="14.00" fill="#000000">DateTime (Scalar)</text>
</g>
<!-- 19&#45;&gt;27 -->
<g id="edge17" class="edge">
<title>19-&gt;27</title>
<path fill="none" stroke="#000000" d="M1739.0657,-1070.1909C1798.4392,-1051.9012 1866.6915,-1029.763 1878.7708,-1021.1283 1927.73,-986.1306 1965.7222,-925.2962 1984.9353,-890.1422"/>
<polygon fill="#000000" stroke="#000000" points="1988.2212,-891.4197 1989.85,-880.9508 1982.0482,-888.119 1988.2212,-891.4197"/>
</g>
<!-- 20 -->
<g id="node21" class="node">
<title>20</title>
<ellipse fill="none" stroke="#000000" cx="1866.7708" cy="-1097.8577" rx="76.4048" ry="40.96"/>
<text text-anchor="start" x="1820.7108" y="-1110.0577" font-family="Times,serif" font-size="14.00" fill="#000000">Orphan (Object)</text>
<text text-anchor="middle" x="1866.7708" y="-1077.2577" font-family="Times,serif" font-size="14.00" fill="#000000">[ID]</text>
</g>
<!-- 21&#45;&gt;0 -->
<g id="edge44" class="edge">
<title>21-&gt;0</title>
<path fill="none" stroke="#000000" d="M1422.1132,-822.9489C1475.2489,-718.4102 1614.2897,-444.3256 1616.7708,-433.8348 1625.1035,-398.6029 1625.4763,-387.5177 1616.7708,-352.3761 1602.5766,-295.078 1598.4722,-274.6004 1554.7708,-234.9174 1539.7008,-221.233 1521.8588,-209.8106 1503.275,-200.3276"/>
<polygon fill="#000000" stroke="#000000" points="1504.6206,-197.0893 1494.1013,-195.8267 1501.5373,-203.3737 1504.6206,-197.0893"/>
</g>
<!-- 21&#45;&gt;1 -->
<g id="edge20" class="edge">
<title>21-&gt;1</title>
<path fill="none" stroke="#000000" d="M1476.4736,-836.3383C1503.1972,-824.1309 1532.0461,-807.5434 1553.7708,-786.2109 1582.9812,-757.528 1564.2293,-729.5917 1596.7708,-704.7522 1599.0917,-702.9806 1720.7109,-676.1701 1818.8885,-654.734"/>
<polygon fill="#000000" stroke="#000000" points="1819.8913,-658.0976 1828.915,-652.5457 1818.3986,-651.2586 1819.8913,-658.0976"/>
</g>
<!-- 21&#45;&gt;2 -->
<g id="edge23" class="edge">
<title>21-&gt;2</title>
<path fill="none" stroke="#000000" d="M1460.712,-830.4068C1479.6956,-818.1533 1499.9051,-803.0573 1515.7708,-786.2109 1544.5811,-755.62 1537.2975,-737.3864 1563.7708,-704.7522 1573.1733,-693.1616 1584.3436,-681.7284 1595.4188,-671.3695"/>
<polygon fill="#000000" stroke="#000000" points="1598.0384,-673.7164 1603.0482,-664.3809 1593.3101,-668.5546 1598.0384,-673.7164"/>
</g>
<!-- 21&#45;&gt;3 -->
<g id="edge37" class="edge">
<title>21-&gt;3</title>
<path fill="none" stroke="#000000" d="M1322.582,-839.0292C1272.4998,-823.9068 1206.4534,-803.9641 1148.2124,-786.3782"/>
<polygon fill="#000000" stroke="#000000" points="1149.1471,-783.0044 1138.5623,-783.4643 1147.1236,-789.7056 1149.1471,-783.0044"/>
</g>
<!-- 21&#45;&gt;13 -->
<g id="edge50" class="edge">
<title>21-&gt;13</title>
<path fill="none" stroke="#000000" d="M1403.2675,-821.9791C1403.7762,-739.654 1391.7924,-554.762 1280.7708,-469.8348 1268.8831,-460.7412 1133.9356,-441.1562 1003.7191,-424.0502"/>
<polygon fill="#000000" stroke="#000000" points="1003.9236,-420.5471 993.5537,-422.7185 1003.0143,-427.4878 1003.9236,-420.5471"/>
</g>
<!-- 21&#45;&gt;14 -->
<g id="edge14" class="edge">
<title>21-&gt;14</title>
<path fill="none" stroke="#000000" d="M1410.6311,-822.1126C1412.7523,-810.5635 1414.7092,-797.9436 1415.7708,-786.2109 1423.7377,-698.1629 1429.3777,-674.6479 1415.7708,-587.2935 1407.9376,-537.0049 1389.3392,-481.9349 1374.5426,-443.3258"/>
<polygon fill="#000000" stroke="#000000" points="1377.7557,-441.931 1370.8716,-433.8775 1371.2309,-444.4662 1377.7557,-441.931"/>
</g>
<!-- 21&#45;&gt;18 -->
<g id="edge11" class="edge">
<title>21-&gt;18</title>
<path fill="none" stroke="#000000" d="M1474.7472,-835.6778C1487.6989,-831.0467 1501.0964,-826.3886 1513.7708,-822.2109 1559.208,-807.2341 1609.5609,-792.0092 1653.6964,-779.1122"/>
<polygon fill="#000000" stroke="#000000" points="1654.6854,-782.4697 1663.307,-776.3118 1652.7271,-775.7491 1654.6854,-782.4697"/>
</g>
<!-- 22 -->
<g id="node23" class="node">
<title>22</title>
<ellipse fill="none" stroke="#000000" cx="1717.7708" cy="-980.399" rx="151.5425" ry="40.96"/>
<text text-anchor="start" x="1618.6291" y="-992.599" font-family="Times,serif" font-size="14.00" fill="#000000">ColorInput (InputObject extension)</text>
<text text-anchor="middle" x="1717.7708" y="-959.799" font-family="Times,serif" font-size="14.00" fill="#000000">[ColorInput, Int]</text>
</g>
<!-- 22&#45;&gt;9 -->
<g id="edge18" class="edge">
<title>22-&gt;9</title>
<path fill="none" stroke="#000000" d="M1717.7708,-939.6473C1717.7708,-931.4507 1717.7708,-922.7372 1717.7708,-914.2349"/>
<polygon fill="#000000" stroke="#000000" points="1721.2709,-914.0177 1717.7708,-904.0177 1714.2709,-914.0178 1721.2709,-914.0177"/>
</g>
<!-- 23 -->
<g id="node24" class="node">
<title>23</title>
<ellipse fill="none" stroke="#000000" cx="1416.7708" cy="-980.399" rx="116.1692" ry="40.96"/>
<text text-anchor="start" x="1342.5099" y="-992.599" font-family="Times,serif" font-size="14.00" fill="#000000">Episode (Enum extension)</text>
<text text-anchor="middle" x="1416.7708" y="-959.799" font-family="Times,serif" font-size="14.00" fill="#000000">[Episode]</text>
</g>
<!-- 23&#45;&gt;21 -->
<g id="edge29" class="edge">
<title>23-&gt;21</title>
<path fill="none" stroke="#000000" d="M1411.5667,-939.6473C1410.4963,-931.2654 1409.3568,-922.3429 1408.2478,-913.6586"/>
<polygon fill="#000000" stroke="#000000" points="1411.7045,-913.096 1406.9658,-903.6199 1404.7609,-913.9828 1411.7045,-913.096"/>
</g>
<!-- 24&#45;&gt;0 -->
<g id="edge47" class="edge">
<title>24-&gt;0</title>
<path fill="none" stroke="#000000" d="M403.0339,-246.6826C421.125,-242.1803 439.9218,-238.0059 457.7708,-234.9174 651.0577,-201.4722 870.0672,-182.4328 1044.7896,-171.6866"/>
<polygon fill="#000000" stroke="#000000" points="1045.1457,-175.1715 1054.9145,-171.0701 1044.7202,-168.1845 1045.1457,-175.1715"/>
</g>
<!-- 25&#45;&gt;3 -->
<g id="edge35" class="edge">
<title>25-&gt;3</title>
<path fill="none" stroke="#000000" d="M1199.373,-939.6645C1194.6111,-905.0862 1183.1834,-855.8634 1155.7708,-822.2109 1145.677,-809.8193 1133.035,-799.1519 1119.4698,-790.053"/>
<polygon fill="#000000" stroke="#000000" points="1121.2299,-787.0241 1110.9187,-784.5889 1117.4607,-792.9227 1121.2299,-787.0241"/>
</g>
<!-- 25&#45;&gt;9 -->
<g id="edge26" class="edge">
<title>25-&gt;9</title>
<path fill="none" stroke="#000000" d="M1259.7762,-951.4189C1270.2217,-946.9466 1281.1747,-942.7867 1291.7708,-939.6696 1399.465,-907.9892 1431.4336,-924.3427 1541.7708,-903.6696 1557.726,-900.6802 1574.4239,-897.2347 1590.9118,-893.6398"/>
<polygon fill="#000000" stroke="#000000" points="1592.1301,-896.9553 1601.1423,-891.3848 1590.6233,-890.1194 1592.1301,-896.9553"/>
</g>
<!-- 25&#45;&gt;17 -->
<g id="edge39" class="edge">
<title>25-&gt;17</title>
<path fill="none" stroke="#000000" d="M1126.2072,-968.2174C1057.7178,-956.0453 955.2446,-934.6622 869.7708,-903.6696 780.2543,-871.2111 683.3555,-819.1745 621.695,-783.7166"/>
<polygon fill="#000000" stroke="#000000" points="623.2678,-780.5832 612.8583,-778.6098 619.7651,-786.6439 623.2678,-780.5832"/>
</g>
<!-- 25&#45;&gt;18 -->
<g id="edge9" class="edge">
<title>25-&gt;18</title>
<path fill="none" stroke="#000000" d="M1259.8329,-951.6078C1270.2723,-947.1154 1281.2086,-942.8998 1291.7708,-939.6696 1385.2592,-911.0785 1430.9055,-962.7841 1508.7708,-903.6696 1540.5895,-879.5133 1517.023,-848.8759 1546.7708,-822.2109 1570.7483,-800.7183 1600.994,-785.2038 1631.4929,-774.0185"/>
<polygon fill="#000000" stroke="#000000" points="1632.6902,-777.3076 1640.9596,-770.6843 1630.3647,-770.7051 1632.6902,-777.3076"/>
</g>
<!-- 25&#45;&gt;21 -->
<g id="edge41" class="edge">
<title>25-&gt;21</title>
<path fill="none" stroke="#000000" d="M1255.0558,-949.5381C1279.9899,-934.8208 1310.0737,-917.064 1336.4924,-901.4705"/>
<polygon fill="#000000" stroke="#000000" points="1338.4658,-904.37 1345.2985,-896.2728 1334.9076,-898.3417 1338.4658,-904.37"/>
</g>
<!-- 25&#45;&gt;24 -->
<g id="edge54" class="edge">
<title>25-&gt;24</title>
<path fill="none" stroke="#000000" d="M1123.0406,-975.9575C1021.3773,-968.589 841.1092,-949.7647 693.7708,-903.6696 580.8127,-868.3305 543.4661,-864.579 454.7708,-786.2109 365.0233,-706.9131 352.7915,-667.231 322.7708,-551.2935 302.9611,-474.7898 300.7794,-382.5952 301.741,-326.5886"/>
<polygon fill="#000000" stroke="#000000" points="305.2407,-326.636 301.9536,-316.564 298.2423,-326.4875 305.2407,-326.636"/>
</g>
<!-- 26 -->
<g id="node27" class="node">
<title>26</title>
<ellipse fill="none" stroke="#000000" cx="506.7708" cy="-628.0229" rx="119.7523" ry="40.96"/>
<text text-anchor="start" x="430.1824" y="-640.2229" font-family="Times,serif" font-size="14.00" fill="#000000">Starship (Object extension)</text>
<text text-anchor="middle" x="506.7708" y="-607.4229" font-family="Times,serif" font-size="14.00" fill="#000000">[Boolean, Starship]</text>
</g>
<!-- 26&#45;&gt;4 -->
<g id="edge31" class="edge">
<title>26-&gt;4</title>
<path fill="none" stroke="#000000" d="M511.975,-587.2711C513.0333,-578.9846 514.159,-570.1695 515.2561,-561.5786"/>
<polygon fill="#000000" stroke="#000000" points="518.73,-562.0045 516.5251,-551.6416 511.7864,-561.1177 518.73,-562.0045"/>
</g>
<!-- 27&#45;&gt;18 -->
<g id="edge10" class="edge">
<title>27-&gt;18</title>
<path fill="none" stroke="#000000" d="M1966.3906,-846.1113C1936.8991,-830.7837 1892.1207,-807.5111 1853.0524,-787.2062"/>
<polygon fill="#000000" stroke="#000000" points="1854.2644,-783.8917 1843.7772,-782.3856 1851.0362,-790.1029 1854.2644,-783.8917"/>
</g>
</g>
</svg>