<?xml version="1.0" encoding="UTF-8" ?>
<svg width="2622pt" height="1147pt" viewBox="0.00 0.00 2621.79 1146.59" xmlns="http://www.w3.org/2000/svg" xmlns:xlink="http://www.w3.org/1999/xlink">
<g id="graph0" class="graph" transform="scale(1 1) rotate(0) translate(4 1142.587)">
<title>%0</title>
<polygon fill="#ffffff" stroke="transparent" points="-4,4 -4,-1142.587 2617.7947,-1142.587 2617.7947,4 -4,4"/>
<!-- 0 -->
<g id="node1" class="node">
<title>0</title>
<ellipse fill="none" stroke="#000000" cx="1474.7965" cy="-628.0229" rx="87.4425" ry="18"/>
<text text-anchor="middle" x="1474.7965" y="-623.8229" font-family="Times,serif" font-size="14.00" fill="#000000">LengthUnit (Enum)</text>
</g>
<!-- 1 -->
<g id="node2" class="node">
<title>1</title>
<ellipse fill="none" stroke="#000000" cx="1819.7965" cy="-510.5642" rx="235.8063" ry="40.96"/>
<text text-anchor="start" x="1661.1646" y="-522.7642" font-family="Times,serif" font-size="14.00" fill="#000000">Starship (Object)</text>
<text text-anchor="middle" x="1819.7965" y="-489.9642" font-family="Times,serif" font-size="14.00" fill="#000000">[ID, String, deprecated, String, LengthUnit, Float, Float]</text>
</g>
<!-- 0&#45;&gt;1 -->
<g id="edge12" class="edge">
<title>0-&gt;1</title>
<path fill="none" stroke="#000000" d="M1511.3704,-611.465C1529.1367,-603.6903 1550.8989,-594.5585 1570.7965,-587.2935 1608.4992,-573.5274 1649.9795,-560.0863 1688.0894,-548.3986"/>
<polygon fill="#000000" stroke="#000000" points="1689.1581,-551.7319 1697.7013,-545.4658 1687.1152,-545.0366 1689.1581,-551.7319"/>
</g>
<!-- 10 -->
<g id="node11" class="node">
<title>10</title>
<ellipse fill="none" stroke="#000000" cx="1790.7965" cy="-393.1055" rx="460.5739" ry="40.96"/>
<text text-anchor="start" x="1473.1477" y="-405.3055" font-family="Times,serif" font-size="14.00" fill="#000000">Human (Object)</text>
<text text-anchor="middle" x="1790.7965" y="-372.5055" font-family="Times,serif" font-size="14.00" fill="#000000">[ID, String, String, LengthUnit, Float, Float, Character, Int, ID, FriendsConnection, Episode, Starship, Character]</text>
</g>
<!-- 0&#45;&gt;10 -->
<g id="edge1" class="edge">
<title>0-&gt;10</title>
<path fill="none" stroke="#000000" d="M1481.5897,-609.8435C1494.679,-577.2029 1526.4439,-508.4736 1574.7965,-469.8348 1591.7138,-456.3161 1611.1986,-445.0777 1631.3951,-435.761"/>
<polygon fill="#000000" stroke="#000000" points="1633.0034,-438.8763 1640.7179,-431.6143 1630.1585,-432.4804 1633.0034,-438.8763"/>
</g>
<!-- 2 -->
<g id="node3" class="node">
<title>2</title>
<ellipse fill="none" stroke="#000000" cx="2178.7965" cy="-275.6468" rx="131.3578" ry="40.96"/>
<text text-anchor="start" x="2094.0391" y="-287.8468" font-family="Times,serif" font-size="14.00" fill="#000000">SearchResult (Union)</text>
<text text-anchor="middle" x="2178.7965" y="-255.0468" font-family="Times,serif" font-size="14.00" fill="#000000">[Human, Droid, Starship, test]</text>
</g>
<!-- 1&#45;&gt;2 -->
<g id="edge43" class="edge">
<title>1-&gt;2</title>
<path fill="none" stroke="#000000" d="M2050.0742,-501.7285C2252.549,-491.5264 2520.1896,-471.1379 2553.7965,-433.8348 2578.0292,-406.9369 2576.6873,-380.4249 2553.7965,-352.3761 2523.8987,-315.7414 2411.3513,-296.1257 2317.2864,-285.9284"/>
<polygon fill="#000000" stroke="#000000" points="2317.3949,-282.4205 2307.0826,-284.8509 2316.6597,-289.3818 2317.3949,-282.4205"/>
</g>
<!-- 1&#45;&gt;10 -->
<g id="edge5" class="edge">
<title>1-&gt;10</title>
<path fill="none" stroke="#000000" d="M1809.7351,-469.8124C1807.6892,-461.5259 1805.5128,-452.7108 1803.3917,-444.1199"/>
<polygon fill="#000000" stroke="#000000" points="1806.7333,-443.0525 1800.9383,-434.1829 1799.9374,-444.7304 1806.7333,-443.0525"/>
</g>
<!-- 23 -->
<g id="node24" class="node">
<title>23</title>
<ellipse fill="none" stroke="#000000" cx="990.7965" cy="-158.1881" rx="456.1862" ry="40.96"/>
<text text-anchor="start" x="676.29" y="-170.3881" font-family="Times,serif" font-size="14.00" fill="#000000">Query (Object)</text>
<text text-anchor="middle" x="990.7965" y="-137.5881" font-family="Times,serif" font-size="14.00" fill="#000000">[Episode, Character, Episode, Review, String, SearchResult, ID, Character, ID, Droid, ID, Human, ID, Starship]</text>
</g>
<!-- 1&#45;&gt;23 -->
<g id="edge23" class="edge">
<title>1-&gt;23</title>
<path fill="none" stroke="#000000" d="M2050.9873,-502.4841C2260.1856,-492.7277 2540.8036,-472.559 2575.7965,-433.8348 2600.0696,-406.9734 2595.3653,-382.8356 2575.7965,-352.3761 2507.9147,-246.7161 2440.6872,-265.1601 2318.7965,-234.9174 2159.0772,-195.2889 1765.6235,-176.0032 1448.1741,-166.6921"/>
<polygon fill="#000000" stroke="#000000" points="1447.9575,-163.1844 1437.8599,-166.3923 1447.754,-170.1814 1447.9575,-163.1844"/>
</g>
<!-- 2&#45;&gt;23 -->
<g id="edge20" class="edge">
<title>2-&gt;23</title>
<path fill="none" stroke="#000000" d="M2053.6253,-263.271C1877.7577,-245.8828 1551.6581,-213.641 1306.8637,-189.4379"/>
<polygon fill="#000000" stroke="#000000" points="1307.0275,-185.9371 1296.7316,-188.4361 1306.3387,-192.9032 1307.0275,-185.9371"/>
</g>
<!-- 3 -->
<g id="node4" class="node">
<title>3</title>
<ellipse fill="none" stroke="#000000" cx="2406.7965" cy="-393.1055" rx="137.5421" ry="40.96"/>
<text text-anchor="start" x="2317.3778" y="-405.3055" font-family="Times,serif" font-size="14.00" fill="#000000">SearchResult (Union extension)</text>
<text text-anchor="middle" x="2406.7965" y="-372.5055" font-family="Times,serif" font-size="14.00" fill="#000000">[Ewok, SearchResult]</text>
</g>
<!-- 3&#45;&gt;2 -->
<g id="edge16" class="edge">
<title>3-&gt;2</title>
<path fill="none" stroke="#000000" d="M2338.0798,-357.7047C2312.0455,-344.2926 2282.2488,-328.9423 2255.5232,-315.174"/>
<polygon fill="#000000" stroke="#000000" points="2257.0799,-312.0389 2246.5873,-310.5705 2253.8741,-318.2617 2257.0799,-312.0389"/>
</g>
<!-- 4 -->
<g id="node5" class="node">
<title>4</title>
<ellipse fill="none" stroke="#000000" cx="1126.7965" cy="-862.9403" rx="134.3616" ry="40.96"/>
<text text-anchor="start" x="1039.7396" y="-875.1403" font-family="Times,serif" font-size="14.00" fill="#000000">Character (Interface extension)</text>
<text text-anchor="middle" x="1126.7965" y="-842.3403" font-family="Times,serif" font-size="14.00" fill="#000000">[Boolean, Character]</text>
</g>
<!-- 18 -->
<g id="node19" class="node">
<title>18</title>
<ellipse fill="none" stroke="#000000" cx="1119.7965" cy="-745.4816" rx="340.1974" ry="40.96"/>
<text text-anchor="start" x="887.3104" y="-757.6816" font-family="Times,serif" font-size="14.00" fill="#000000">Character (Interface)</text>
<text text-anchor="middle" x="1119.7965" y="-724.8816" font-family="Times,serif" font-size="14.00" fill="#000000">[ID, String, Character, Int, ID, FriendsConnection, Episode, deprecated, Bool, test]</text>
</g>
<!-- 4&#45;&gt;18 -->
<g id="edge6" class="edge">
<title>4-&gt;18</title>
<path fill="none" stroke="#000000" d="M1124.3679,-822.1885C1123.8794,-813.992 1123.3601,-805.2785 1122.8534,-796.7762"/>
<polygon fill="#000000" stroke="#000000" points="1126.3333,-796.3331 1122.2445,-786.559 1119.3457,-796.7496 1126.3333,-796.3331"/>
</g>
<!-- 5 -->
<g id="node6" class="node">
<title>5</title>
<ellipse fill="none" stroke="#000000" cx="444.7965" cy="-980.399" rx="151.5425" ry="40.96"/>
<text text-anchor="start" x="345.6548" y="-992.599" font-family="Times,serif" font-size="14.00" fill="#000000">ColorInput (InputObject extension)</text>
<text text-anchor="middle" x="444.7965" y="-959.799" font-family="Times,serif" font-size="14.00" fill="#000000">[Int, ColorInput]</text>
</g>
<!-- 22 -->
<g id="node23" class="node">
<title>22</title>
<ellipse fill="none" stroke="#000000" cx="466.7965" cy="-862.9403" rx="143.0068" ry="40.96"/>
<text text-anchor="start" x="373.5012" y="-875.1403" font-family="Times,serif" font-size="14.00" fill="#000000">ColorInput (InputObject)</text>
<text text-anchor="middle" x="466.7965" y="-842.3403" font-family="Times,serif" font-size="14.00" fill="#000000">[Int, Int, Int, deprecated, Int, test]</text>
</g>
<!-- 5&#45;&gt;22 -->
<g id="edge15" class="edge">
<title>5-&gt;22</title>
<path fill="none" stroke="#000000" d="M452.4293,-939.6473C453.9992,-931.2654 455.6704,-922.3429 457.297,-913.6586"/>
<polygon fill="#000000" stroke="#000000" points="460.7763,-914.0934 459.1772,-903.6199 453.8959,-912.8046 460.7763,-914.0934"/>
</g>
<!-- 6 -->
<g id="node7" class="node">
<title>6</title>
<ellipse fill="none" stroke="#000000" cx="1699.7965" cy="-628.0229" rx="119.7523" ry="40.96"/>
<text text-anchor="start" x="1623.2081" y="-640.2229" font-family="Times,serif" font-size="14.00" fill="#000000">Starship (Object extension)</text>
<text text-anchor="middle" x="1699.7965" y="-607.4229" font-family="Times,serif" font-size="14.00" fill="#000000">[Boolean, Starship]</text>
</g>
<!-- 6&#45;&gt;1 -->
<g id="edge8" class="edge">
<title>6-&gt;1</title>
<path fill="none" stroke="#000000" d="M1739.4215,-589.237C1749.6276,-579.247 1760.7263,-568.3834 1771.326,-558.0081"/>
<polygon fill="#000000" stroke="#000000" points="1773.8694,-560.4162 1778.5675,-550.92 1768.9729,-555.4138 1773.8694,-560.4162"/>
</g>
<!-- 7 -->
<g id="node8" class="node">
<title>7</title>
<ellipse fill="none" stroke="#000000" cx="1153.7965" cy="-980.399" rx="70.9084" ry="40.96"/>
<text text-anchor="start" x="1111.6243" y="-992.599" font-family="Times,serif" font-size="14.00" fill="#000000">test (Directive)</text>
<text text-anchor="middle" x="1153.7965" y="-959.799" font-family="Times,serif" font-size="14.00" fill="#000000">[Letter]</text>
</g>
<!-- 7&#45;&gt;2 -->
<g id="edge44" class="edge">
<title>7-&gt;2</title>
<path fill="none" stroke="#000000" d="M1224.563,-976.5651C1516.3454,-959.8336 2610.7965,-887.6026 2610.7965,-745.4816 2610.7965,-745.4816 2610.7965,-745.4816 2610.7965,-510.5642 2610.7965,-438.558 2627.3909,-402.6046 2575.7965,-352.3761 2539.2331,-316.7808 2416.1623,-296.8686 2316.6309,-286.3066"/>
<polygon fill="#000000" stroke="#000000" points="2316.7719,-282.8025 2306.4639,-285.2512 2316.0491,-289.7651 2316.7719,-282.8025"/>
</g>
<!-- 14 -->
<g id="node15" class="node">
<title>14</title>
<ellipse fill="none" stroke="#000000" cx="1595.7965" cy="-745.4816" rx="100.2512" ry="40.96"/>
<text text-anchor="start" x="1532.8203" y="-757.6816" font-family="Times,serif" font-size="14.00" fill="#000000">PageInfo (Object)</text>
<text text-anchor="middle" x="1595.7965" y="-724.8816" font-family="Times,serif" font-size="14.00" fill="#000000">[ID, ID, Boolean, test]</text>
</g>
<!-- 7&#45;&gt;14 -->
<g id="edge26" class="edge">
<title>7-&gt;14</title>
<path fill="none" stroke="#000000" d="M1206.2354,-952.5283C1285.7142,-910.2864 1436.8033,-829.9844 1525.6545,-782.7612"/>
<polygon fill="#000000" stroke="#000000" points="1527.3955,-785.7995 1534.5832,-778.0157 1524.1102,-779.6183 1527.3955,-785.7995"/>
</g>
<!-- 15 -->
<g id="node16" class="node">
<title>15</title>
<ellipse fill="none" stroke="#000000" cx="451.7965" cy="-745.4816" rx="158.2386" ry="40.96"/>
<text text-anchor="start" x="347.9893" y="-757.6816" font-family="Times,serif" font-size="14.00" fill="#000000">Review (Object)</text>
<text text-anchor="middle" x="451.7965" y="-724.8816" font-family="Times,serif" font-size="14.00" fill="#000000">[Episode, test, Int, String, DateTime]</text>
</g>
<!-- 7&#45;&gt;15 -->
<g id="edge49" class="edge">
<title>7-&gt;15</title>
<path fill="none" stroke="#000000" d="M1103.7842,-951.2731C1094.1005,-946.6984 1083.8362,-942.5405 1073.7965,-939.6696 984.3694,-914.0981 733.0216,-956.9691 656.7965,-903.6696 624.0569,-880.7769 647.1267,-850.3774 618.7965,-822.2109 602.1658,-805.6763 581.3186,-792.3112 560.0471,-781.6586"/>
<polygon fill="#000000" stroke="#000000" points="561.4437,-778.4465 550.9158,-777.258 558.4047,-784.7524 561.4437,-778.4465"/>
</g>
<!-- 7&#45;&gt;18 -->
<g id="edge55" class="edge">
<title>7-&gt;18</title>
<path fill="none" stroke="#000000" d="M1211.6798,-956.8232C1234.0358,-944.5212 1257.2214,-927.0647 1269.7965,-903.6696 1286.9372,-871.7805 1288.6884,-853.0948 1269.7965,-822.2109 1262.0454,-809.5396 1251.4671,-798.8762 1239.4882,-789.9227"/>
<polygon fill="#000000" stroke="#000000" points="1241.193,-786.8445 1230.9889,-783.9936 1237.188,-792.5856 1241.193,-786.8445"/>
</g>
<!-- 7&#45;&gt;22 -->
<g id="edge29" class="edge">
<title>7-&gt;22</title>
<path fill="none" stroke="#000000" d="M1103.7988,-951.2215C1094.1138,-946.6518 1083.8452,-942.5089 1073.7965,-939.6696 880.7168,-885.1148 821.6499,-936.9869 623.7965,-903.6696 608.8765,-901.1572 593.3033,-897.9052 578.0085,-894.3348"/>
<polygon fill="#000000" stroke="#000000" points="578.5468,-890.865 568.0074,-891.9471 576.9213,-897.6737 578.5468,-890.865"/>
</g>
<!-- 26 -->
<g id="node27" class="node">
<title>26</title>
<ellipse fill="none" stroke="#000000" cx="744.7965" cy="-862.9403" rx="79.4375" ry="40.96"/>
<text text-anchor="start" x="696.6036" y="-875.1403" font-family="Times,serif" font-size="14.00" fill="#000000">Episode (Enum)</text>
<text text-anchor="middle" x="744.7965" y="-842.3403" font-family="Times,serif" font-size="14.00" fill="#000000">[test, deprecated]</text>
</g>
<!-- 7&#45;&gt;26 -->
<g id="edge39" class="edge">
<title>7-&gt;26</title>
<path fill="none" stroke="#000000" d="M1102.5416,-952.0148C1093.1539,-947.4791 1083.3127,-943.1435 1073.7965,-939.6696 993.6177,-910.4003 898.2775,-889.6126 830.9244,-877.1221"/>
<polygon fill="#000000" stroke="#000000" points="831.2458,-873.6229 820.7789,-875.2641 829.9848,-880.5083 831.2458,-873.6229"/>
</g>
<!-- 8 -->
<g id="node9" class="node">
<title>8</title>
<ellipse fill="none" stroke="#000000" cx="604.7965" cy="-1097.8577" rx="125.2149" ry="40.96"/>
<text text-anchor="start" x="524.3322" y="-1110.0577" font-family="Times,serif" font-size="14.00" fill="#000000">DateTime (Scalar extension)</text>
<text text-anchor="middle" x="604.7965" y="-1077.2577" font-family="Times,serif" font-size="14.00" fill="#000000">[test, DateTime]</text>
</g>
<!-- 8&#45;&gt;7 -->
<g id="edge9" class="edge">
<title>8-&gt;7</title>
<path fill="none" stroke="#000000" d="M726.7511,-1088.3013C822.8749,-1078.3086 959.3222,-1058.6248 1073.7965,-1021.1283 1080.3642,-1018.977 1087.057,-1016.349 1093.6345,-1013.4738"/>
<polygon fill="#000000" stroke="#000000" points="1095.526,-1016.4573 1103.1607,-1009.1114 1092.6114,-1010.0928 1095.526,-1016.4573"/>
</g>
<!-- 16 -->
<g id="node17" class="node">
<title>16</title>
<ellipse fill="none" stroke="#000000" cx="222.7965" cy="-862.9403" rx="82.7355" ry="18"/>
<text text-anchor="middle" x="222.7965" y="-858.7403" font-family="Times,serif" font-size="14.00" fill="#000000">DateTime (Scalar)</text>
</g>
<!-- 8&#45;&gt;16 -->
<g id="edge10" class="edge">
<title>8-&gt;16</title>
<path fill="none" stroke="#000000" d="M489.5728,-1081.835C410.5052,-1068.7374 314.5247,-1048.0079 283.7965,-1021.1283 245.3483,-987.4957 230.9956,-926.7645 225.7386,-891.1326"/>
<polygon fill="#000000" stroke="#000000" points="229.1707,-890.3892 224.3825,-880.938 222.2318,-891.3122 229.1707,-890.3892"/>
</g>
<!-- 9 -->
<g id="node10" class="node">
<title>9</title>
<ellipse fill="none" stroke="#000000" cx="1153.7965" cy="-1097.8577" rx="66.0077" ry="18"/>
<text text-anchor="middle" x="1153.7965" y="-1093.6577" font-family="Times,serif" font-size="14.00" fill="#000000">Letter (Enum)</text>
</g>
<!-- 9&#45;&gt;7 -->
<g id="edge24" class="edge">
<title>9-&gt;7</title>
<path fill="none" stroke="#000000" d="M1153.7965,-1079.7622C1153.7965,-1066.744 1153.7965,-1048.5012 1153.7965,-1031.1947"/>
<polygon fill="#000000" stroke="#000000" points="1157.2966,-1031.1596 1153.7965,-1021.1597 1150.2966,-1031.1597 1157.2966,-1031.1596"/>
</g>
<!-- 10&#45;&gt;2 -->
<g id="edge41" class="edge">
<title>10-&gt;2</title>
<path fill="none" stroke="#000000" d="M1919.9949,-353.9934C1970.4204,-338.7281 2027.4451,-321.4651 2075.1079,-307.0363"/>
<polygon fill="#000000" stroke="#000000" points="2076.2634,-310.3434 2084.8203,-304.096 2074.2351,-303.6437 2076.2634,-310.3434"/>
</g>
<!-- 10&#45;&gt;23 -->
<g id="edge22" class="edge">
<title>10-&gt;23</title>
<path fill="none" stroke="#000000" d="M1657.7947,-354.0499C1512.9117,-311.5055 1282.0211,-243.7052 1133.4483,-200.0773"/>
<polygon fill="#000000" stroke="#000000" points="1134.3639,-196.6984 1123.7829,-197.2391 1132.3916,-203.4149 1134.3639,-196.6984"/>
</g>
<!-- 11 -->
<g id="node12" class="node">
<title>11</title>
<ellipse fill="none" stroke="#000000" cx="990.7965" cy="-393.1055" rx="321.9078" ry="40.96"/>
<text text-anchor="start" x="771.1407" y="-405.3055" font-family="Times,serif" font-size="14.00" fill="#000000">Droid (Object)</text>
<text text-anchor="middle" x="990.7965" y="-372.5055" font-family="Times,serif" font-size="14.00" fill="#000000">[ID, String, Character, Int, ID, FriendsConnection, Episode, String, Character]</text>
</g>
<!-- 11&#45;&gt;2 -->
<g id="edge42" class="edge">
<title>11-&gt;2</title>
<path fill="none" stroke="#000000" d="M1217.4604,-364.1109C1252.0537,-359.9809 1287.3596,-355.9336 1320.7965,-352.3761 1574.8685,-325.3442 1871.9587,-300.2189 2041.4898,-286.495"/>
<polygon fill="#000000" stroke="#000000" points="2041.7824,-289.9828 2051.4679,-285.6885 2041.2184,-283.0056 2041.7824,-289.9828"/>
</g>
<!-- 11&#45;&gt;23 -->
<g id="edge21" class="edge">
<title>11-&gt;23</title>
<path fill="none" stroke="#000000" d="M990.7965,-352.186C990.7965,-312.4742 990.7965,-252.0882 990.7965,-209.2493"/>
<polygon fill="#000000" stroke="#000000" points="994.2966,-209.032 990.7965,-199.032 987.2966,-209.0321 994.2966,-209.032"/>
</g>
<!-- 12 -->
<g id="node13" class="node">
<title>12</title>
<ellipse fill="none" stroke="#000000" cx="1094.7965" cy="-510.5642" rx="167.9781" ry="40.96"/>
<text text-anchor="start" x="984.0103" y="-522.7642" font-family="Times,serif" font-size="14.00" fill="#000000">FriendsConnection (Object)</text>
<text text-anchor="middle" x="1094.7965" y="-489.9642" font-family="Times,serif" font-size="14.00" fill="#000000">[Int, FriendsEdge, Character, PageInfo]</text>
</g>
<!-- 12&#45;&gt;10 -->
<g id="edge3" class="edge">
<title>12-&gt;10</title>
<path fill="none" stroke="#000000" d="M1225.3456,-484.9295C1252.5643,-479.7735 1281.0949,-474.5074 1307.7965,-469.8348 1386.1367,-456.1257 1471.8122,-442.1763 1548.9669,-429.9978"/>
<polygon fill="#000000" stroke="#000000" points="1549.973,-433.3825 1559.3062,-428.3683 1548.8832,-426.4679 1549.973,-433.3825"/>
</g>
<!-- 12&#45;&gt;11 -->
<g id="edge31" class="edge">
<title>12-&gt;11</title>
<path fill="none" stroke="#000000" d="M1059.2965,-470.4701C1051.0317,-461.1357 1042.1465,-451.1007 1033.6033,-441.4519"/>
<polygon fill="#000000" stroke="#000000" points="1036.093,-438.9841 1026.8435,-433.8173 1030.8521,-443.6245 1036.093,-438.9841"/>
</g>
<!-- 12&#45;&gt;18 -->
<g id="edge52" class="edge">
<title>12-&gt;18</title>
<path fill="none" stroke="#000000" d="M1096.5369,-551.5606C1094.8879,-583.7072 1092.6137,-629.4311 1099.7965,-668.7522 1101.3769,-677.4038 1103.8825,-686.3466 1106.6486,-694.9367"/>
<polygon fill="#000000" stroke="#000000" points="1103.3428,-696.0873 1109.8468,-704.4508 1109.978,-693.8568 1103.3428,-696.0873"/>
</g>
<!-- 13 -->
<g id="node14" class="node">
<title>13</title>
<ellipse fill="none" stroke="#000000" cx="1196.7965" cy="-628.0229" rx="96.604" ry="40.96"/>
<text text-anchor="start" x="1136.3473" y="-640.2229" font-family="Times,serif" font-size="14.00" fill="#000000">FriendsEdge (Object)</text>
<text text-anchor="middle" x="1196.7965" y="-607.4229" font-family="Times,serif" font-size="14.00" fill="#000000">[ID, Character]</text>
</g>
<!-- 13&#45;&gt;12 -->
<g id="edge36" class="edge">
<title>13-&gt;12</title>
<path fill="none" stroke="#000000" d="M1163.3979,-589.5625C1154.7863,-579.6457 1145.4115,-568.8502 1136.4372,-558.5157"/>
<polygon fill="#000000" stroke="#000000" points="1138.8712,-555.9805 1129.6717,-550.7249 1133.5858,-560.5703 1138.8712,-555.9805"/>
</g>
<!-- 14&#45;&gt;12 -->
<g id="edge38" class="edge">
<title>14-&gt;12</title>
<path fill="none" stroke="#000000" d="M1522.3439,-717.6258C1510.4848,-713.2465 1498.3201,-708.8243 1486.7965,-704.7522 1439.091,-687.8945 1421.3691,-696.094 1378.7965,-668.7522 1337.1345,-641.9952 1344.0298,-614.7065 1302.7965,-587.2935 1276.5493,-569.8437 1245.8113,-555.7065 1216.1411,-544.5481"/>
<polygon fill="#000000" stroke="#000000" points="1217.1461,-541.1887 1206.5524,-541.0294 1214.7346,-547.7602 1217.1461,-541.1887"/>
</g>
<!-- 15&#45;&gt;23 -->
<g id="edge19" class="edge">
<title>15-&gt;23</title>
<path fill="none" stroke="#000000" d="M444.4848,-704.4706C436.7947,-657.707 425.7965,-578.8846 425.7965,-510.5642 425.7965,-510.5642 425.7965,-510.5642 425.7965,-393.1055 425.7965,-292.1545 499.2306,-281.4905 588.7965,-234.9174 617.107,-220.1963 675.0385,-206.3597 738.3203,-194.5992"/>
<polygon fill="#000000" stroke="#000000" points="739.3138,-197.9755 748.5189,-192.7297 738.0517,-191.0902 739.3138,-197.9755"/>
</g>
<!-- 24 -->
<g id="node25" class="node">
<title>24</title>
<ellipse fill="none" stroke="#000000" cx="256.7965" cy="-628.0229" rx="141.1368" ry="40.96"/>
<text text-anchor="start" x="165.0461" y="-640.2229" font-family="Times,serif" font-size="14.00" fill="#000000">Mutation (Object)</text>
<text text-anchor="middle" x="256.7965" y="-607.4229" font-family="Times,serif" font-size="14.00" fill="#000000">[Episode, ReviewInput, Review]</text>
</g>
<!-- 15&#45;&gt;24 -->
<g id="edge47" class="edge">
<title>15-&gt;24</title>
<path fill="none" stroke="#000000" d="M389.5611,-707.9939C369.4703,-695.8922 347.0706,-682.3997 326.4778,-669.9956"/>
<polygon fill="#000000" stroke="#000000" points="328.1469,-666.9151 317.7749,-664.7534 324.535,-672.9113 328.1469,-666.9151"/>
</g>
<!-- 25 -->
<g id="node26" class="node">
<title>25</title>
<ellipse fill="none" stroke="#000000" cx="550.7965" cy="-628.0229" rx="96.6237" ry="40.96"/>
<text text-anchor="start" x="490.3403" y="-640.2229" font-family="Times,serif" font-size="14.00" fill="#000000">Subscription (Object)</text>
<text text-anchor="middle" x="550.7965" y="-607.4229" font-family="Times,serif" font-size="14.00" fill="#000000">[Episode, Review]</text>
</g>
<!-- 15&#45;&gt;25 -->
<g id="edge14" class="edge">
<title>15-&gt;25</title>
<path fill="none" stroke="#000000" d="M485.5898,-705.3875C493.9815,-695.4311 503.0451,-684.6776 511.6689,-674.4459"/>
<polygon fill="#000000" stroke="#000000" points="514.3909,-676.6471 518.1594,-666.7451 509.0385,-672.1358 514.3909,-676.6471"/>
</g>
<!-- 16&#45;&gt;15 -->
<g id="edge50" class="edge">
<title>16-&gt;15</title>
<path fill="none" stroke="#000000" d="M255.1209,-846.3604C285.266,-830.8984 331.4728,-807.198 371.5257,-786.6541"/>
<polygon fill="#000000" stroke="#000000" points="373.1976,-789.7301 380.4981,-782.0519 370.0029,-783.5016 373.1976,-789.7301"/>
</g>
<!-- 17 -->
<g id="node18" class="node">
<title>17</title>
<ellipse fill="none" stroke="#000000" cx="730.7965" cy="-980.399" rx="116.1692" ry="40.96"/>
<text text-anchor="start" x="656.5356" y="-992.599" font-family="Times,serif" font-size="14.00" fill="#000000">Episode (Enum extension)</text>
<text text-anchor="middle" x="730.7965" y="-959.799" font-family="Times,serif" font-size="14.00" fill="#000000">[Episode]</text>
</g>
<!-- 17&#45;&gt;26 -->
<g id="edge27" class="edge">
<title>17-&gt;26</title>
<path fill="none" stroke="#000000" d="M735.6537,-939.6473C736.6528,-931.2654 737.7162,-922.3429 738.7513,-913.6586"/>
<polygon fill="#000000" stroke="#000000" points="742.2396,-913.9639 739.9478,-903.6199 735.2888,-913.1354 742.2396,-913.9639"/>
</g>
<!-- 18&#45;&gt;10 -->
<g id="edge2" class="edge">
<title>18-&gt;10</title>
<path fill="none" stroke="#000000" d="M1232.6057,-707.0131C1256.7853,-696.3938 1281.4556,-683.6213 1302.7965,-668.7522 1343.4222,-640.4466 1343.6402,-622.1604 1378.7965,-587.2935 1433.6183,-532.9229 1439.1551,-507.0669 1506.7965,-469.8348 1533.4431,-455.1676 1563.0617,-443.1721 1592.8274,-433.399"/>
<polygon fill="#000000" stroke="#000000" points="1594.0372,-436.6867 1602.4932,-430.3034 1591.9021,-430.0203 1594.0372,-436.6867"/>
</g>
<!-- 18&#45;&gt;11 -->
<g id="edge30" class="edge">
<title>18-&gt;11</title>
<path fill="none" stroke="#000000" d="M1055.8651,-705.2799C1007.8339,-670.9806 945.7167,-616.8632 917.7965,-551.2935 903.6128,-517.9837 904.3594,-503.4527 917.7965,-469.8348 921.8718,-459.6388 928.0183,-450.0243 935.0479,-441.2749"/>
<polygon fill="#000000" stroke="#000000" points="937.8687,-443.362 941.7178,-433.491 932.5532,-438.8072 937.8687,-443.362"/>
</g>
<!-- 18&#45;&gt;12 -->
<g id="edge37" class="edge">
<title>18-&gt;12</title>
<path fill="none" stroke="#000000" d="M1092.6686,-704.8503C1087.9921,-693.4123 1083.9972,-680.7999 1081.7965,-668.7522 1075.321,-633.3033 1076.5317,-592.6504 1080.4627,-561.4335"/>
<polygon fill="#000000" stroke="#000000" points="1083.9708,-561.6188 1081.8929,-551.2297 1077.0386,-560.647 1083.9708,-561.6188"/>
</g>
<!-- 18&#45;&gt;13 -->
<g id="edge25" class="edge">
<title>18-&gt;13</title>
<path fill="none" stroke="#000000" d="M1146.5113,-704.7298C1152.5638,-695.497 1159.0465,-685.6081 1165.2768,-676.1041"/>
<polygon fill="#000000" stroke="#000000" points="1168.3527,-677.7961 1170.9081,-667.514 1162.4984,-673.9583 1168.3527,-677.7961"/>
</g>
<!-- 18&#45;&gt;18 -->
<g id="edge51" class="edge">
<title>18-&gt;18</title>
<path fill="none" stroke="#000000" d="M1424.4654,-763.6074C1456.9928,-760.1045 1477.8952,-754.0626 1477.8952,-745.4816 1477.8952,-737.8391 1461.3151,-732.2106 1434.7091,-728.5962"/>
<polygon fill="#000000" stroke="#000000" points="1434.8137,-725.0834 1424.4654,-727.3558 1433.9721,-732.0326 1434.8137,-725.0834"/>
</g>
<!-- 18&#45;&gt;23 -->
<g id="edge18" class="edge">
<title>18-&gt;23</title>
<path fill="none" stroke="#000000" d="M1004.4236,-707.1666C890.7595,-662.1833 724.9616,-575.2065 659.7965,-433.8348 610.3167,-326.4914 748.1105,-246.6227 860.7905,-201.2211"/>
<polygon fill="#000000" stroke="#000000" points="862.2265,-204.4169 870.2294,-197.474 859.6436,-197.9108 862.2265,-204.4169"/>
</g>
<!-- 19 -->
<g id="node20" class="node">
<title>19</title>
<ellipse fill="none" stroke="#000000" cx="964.7965" cy="-980.399" rx="100.1512" ry="40.96"/>
<text text-anchor="start" x="902.0324" y="-992.599" font-family="Times,serif" font-size="14.00" fill="#000000">deprecated (Directive)</text>
<text text-anchor="middle" x="964.7965" y="-959.799" font-family="Times,serif" font-size="14.00" fill="#000000">[String]</text>
</g>
<!-- 19&#45;&gt;1 -->
<g id="edge11" class="edge">
<title>19-&gt;1</title>
<path fill="none" stroke="#000000" d="M1036.0302,-951.7405C1048.4949,-947.3144 1061.432,-943.0866 1073.7965,-939.6696 1159.1649,-916.0778 1183.4152,-923.2302 1269.7965,-903.6696 1465.1089,-859.442 1530.123,-884.1506 1704.7965,-786.2109 1771.0095,-749.0852 1798.7996,-738.485 1828.7965,-668.7522 1843.3129,-635.0065 1840.2346,-593.42 1833.9683,-561.3568"/>
<polygon fill="#000000" stroke="#000000" points="1837.3353,-560.3616 1831.84,-551.3033 1830.487,-561.8114 1837.3353,-560.3616"/>
</g>
<!-- 19&#45;&gt;18 -->
<g id="edge54" class="edge">
<title>19-&gt;18</title>
<path fill="none" stroke="#000000" d="M960.0463,-939.5891C958.1878,-905.4258 960.6934,-856.8409 983.7965,-822.2109 991.9256,-810.026 1002.6815,-799.5665 1014.5933,-790.647"/>
<polygon fill="#000000" stroke="#000000" points="1016.8502,-793.3383 1023.0065,-784.7157 1012.8167,-787.6172 1016.8502,-793.3383"/>
</g>
<!-- 19&#45;&gt;22 -->
<g id="edge28" class="edge">
<title>19-&gt;22</title>
<path fill="none" stroke="#000000" d="M893.9357,-951.5533C881.3716,-947.1216 868.3049,-942.9405 855.7965,-939.6696 754.8459,-913.2711 725.9803,-924.797 623.7965,-903.6696 609.569,-900.728 594.6993,-897.3177 580.0242,-893.7472"/>
<polygon fill="#000000" stroke="#000000" points="580.4529,-890.2482 569.9058,-891.2535 578.7778,-897.0448 580.4529,-890.2482"/>
</g>
<!-- 19&#45;&gt;26 -->
<g id="edge40" class="edge">
<title>19-&gt;26</title>
<path fill="none" stroke="#000000" d="M904.0981,-947.9919C874.5912,-932.2381 839.1168,-913.2982 809.1413,-897.2942"/>
<polygon fill="#000000" stroke="#000000" points="810.4977,-894.0508 800.0278,-892.4284 807.2008,-900.2258 810.4977,-894.0508"/>
</g>
<!-- 20 -->
<g id="node21" class="node">
<title>20</title>
<ellipse fill="none" stroke="#000000" cx="506.7965" cy="-40.7294" rx="138.7632" ry="40.96"/>
<text text-anchor="start" x="416.5924" y="-52.9294" font-family="Times,serif" font-size="14.00" fill="#000000">schema (Schema)</text>
<text text-anchor="middle" x="506.7965" y="-20.1294" font-family="Times,serif" font-size="14.00" fill="#000000">[Query, Mutation, Subscription]</text>
</g>
<!-- 21 -->
<g id="node22" class="node">
<title>21</title>
<ellipse fill="none" stroke="#000000" cx="118.7965" cy="-745.4816" rx="118.5933" ry="40.96"/>
<text text-anchor="start" x="42.7947" y="-757.6816" font-family="Times,serif" font-size="14.00" fill="#000000">ReviewInput (InputObject)</text>
<text text-anchor="middle" x="118.7965" y="-724.8816" font-family="Times,serif" font-size="14.00" fill="#000000">[Int, String, ColorInput]</text>
</g>
<!-- 21&#45;&gt;24 -->
<g id="edge46" class="edge">
<title>21-&gt;24</title>
<path fill="none" stroke="#000000" d="M163.2202,-707.6703C175.9981,-696.7944 190.0695,-684.8175 203.333,-673.5283"/>
<polygon fill="#000000" stroke="#000000" points="205.6866,-676.1212 211.0332,-666.9743 201.1495,-670.7906 205.6866,-676.1212"/>
</g>
<!-- 22&#45;&gt;21 -->
<g id="edge7" class="edge">
<title>22-&gt;21</title>
<path fill="none" stroke="#000000" d="M374.4525,-831.7719C324.6065,-814.9476 263.198,-794.2207 213.0598,-777.2978"/>
<polygon fill="#000000" stroke="#000000" points="214.1064,-773.9571 203.5123,-774.0753 211.8678,-780.5895 214.1064,-773.9571"/>
</g>
<!-- 23&#45;&gt;20 -->
<g id="edge33" class="edge">
<title>23-&gt;20</title>
<path fill="none" stroke="#000000" d="M832.9865,-119.8902C764.905,-103.368 686.6678,-84.3811 623.8841,-69.1446"/>
<polygon fill="#000000" stroke="#000000" points="624.4877,-65.6895 613.9443,-66.7323 622.8368,-72.4921 624.4877,-65.6895"/>
</g>
<!-- 24&#45;&gt;20 -->
<g id="edge34" class="edge">
<title>24-&gt;20</title>
<path fill="none" stroke="#000000" d="M275.5329,-587.4083C295.0454,-541.3274 322.7965,-463.4286 322.7965,-393.1055 322.7965,-393.1055 322.7965,-393.1055 322.7965,-275.6468 322.7965,-195.5734 389.8718,-126.5553 443.0261,-84.4327"/>
<polygon fill="#000000" stroke="#000000" points="445.346,-87.0624 451.0911,-78.1604 441.0486,-81.5368 445.346,-87.0624"/>
</g>
<!-- 25&#45;&gt;20 -->
<g id="edge35" class="edge">
<title>25-&gt;20</title>
<path fill="none" stroke="#000000" d="M538.4229,-587.2928C525.4088,-540.7841 506.7965,-462.1921 506.7965,-393.1055 506.7965,-393.1055 506.7965,-393.1055 506.7965,-275.6468 506.7965,-212.193 506.7965,-139.0982 506.7965,-91.5183"/>
<polygon fill="#000000" stroke="#000000" points="510.2966,-91.4707 506.7965,-81.4707 503.2966,-91.4708 510.2966,-91.4707"/>
</g>
<!-- 26&#45;&gt;10 -->
<g id="edge4" class="edge">
<title>26-&gt;10</title>
<path fill="none" stroke="#000000" d="M748.1691,-822.152C757.6152,-737.9937 792.5421,-546.5706 917.7965,-469.8348 918.5428,-469.3776 1207.3451,-444.0532 1452.5319,-422.6241"/>
<polygon fill="#000000" stroke="#000000" points="1453.0444,-426.0928 1462.7017,-421.7353 1452.4349,-419.1193 1453.0444,-426.0928"/>
</g>
<!-- 26&#45;&gt;11 -->
<g id="edge32" class="edge">
<title>26-&gt;11</title>
<path fill="none" stroke="#000000" d="M732.6258,-822.5776C718.1168,-766.5483 700.2201,-663.5039 737.7965,-587.2935 770.811,-520.3353 839.2283,-470.0424 896.5992,-437.4337"/>
<polygon fill="#000000" stroke="#000000" points="898.3167,-440.4834 905.3409,-432.5518 894.9036,-434.3719 898.3167,-440.4834"/>
</g>
<!-- 26&#45;&gt;15 -->
<g id="edge48" class="edge">
<title>26-&gt;15</title>
<path fill="none" stroke="#000000" d="M684.4381,-836.0211C673.6073,-831.3295 662.3952,-826.5621 651.7965,-822.2109 619.388,-808.906 583.7496,-795.0033 551.6465,-782.7443"/>
<polygon fill="#000000" stroke="#000000" points="552.8403,-779.4537 542.2495,-779.1641 550.3481,-785.9951 552.8403,-779.4537"/>
</g>
<!-- 26&#45;&gt;18 -->
<g id="edge53" class="edge">
<title>26-&gt;18</title>
<path fill="none" stroke="#000000" d="M812.7062,-841.6694C861.5899,-826.3578 929.0867,-805.2163 988.3541,-786.6524"/>
<polygon fill="#000000" stroke="#000000" points="989.6746,-789.9065 998.1712,-783.5774 987.5822,-783.2265 989.6746,-789.9065"/>
</g>
<!-- 26&#45;&gt;23 -->
<g id="edge17" class="edge">
<title>26-&gt;23</title>
<path fill="none" stroke="#000000" d="M725.7895,-823.3456C720.6911,-811.5921 715.5569,-798.5567 711.7965,-786.2109 676.0245,-668.7674 588.5028,-321.2448 675.7965,-234.9174 690.8948,-219.9862 724.4562,-207.1912 764.2858,-196.5701"/>
<polygon fill="#000000" stroke="#000000" points="765.1776,-199.9547 773.9796,-194.0576 763.4213,-193.1786 765.1776,-199.9547"/>
</g>
<!-- 26&#45;&gt;24 -->
<g id="edge45" class="edge">
<title>26-&gt;24</title>
<path fill="none" stroke="#000000" d="M680.0919,-839.2142C660.6131,-832.8387 639.0324,-826.5242 618.7965,-822.2109 545.7845,-806.6483 339.3428,-837.1779 284.7965,-786.2109 256.1403,-759.4352 250.5172,-714.3459 251.2695,-679.1409"/>
<polygon fill="#000000" stroke="#000000" points="254.7714,-679.16 251.6627,-669.0315 247.7766,-678.8879 254.7714,-679.16"/>
</g>
<!-- 26&#45;&gt;25 -->
<g id="edge13" class="edge">
<title>26-&gt;25</title>
<path fill="none" stroke="#000000" d="M701.937,-828.3785C688.1195,-815.9762 673.3944,-801.3047 661.7965,-786.2109 636.853,-753.7489 642.0951,-738.4142 618.7965,-704.7522 611.5227,-694.243 602.9796,-683.5927 594.4514,-673.7072"/>
<polygon fill="#000000" stroke="#000000" points="596.8715,-671.1591 587.6397,-665.9605 591.6147,-675.7814 596.8715,-671.1591"/>
</g>
<!-- 27 -->
<g id="node28" class="node">
<title>27</title>
<ellipse fill="none" stroke="#000000" cx="1313.7965" cy="-1097.8577" rx="76.4048" ry="40.96"/>
<text text-anchor="start" x="1267.7365" y="-1110.0577" font-family="Times,serif" font-size="14.00" fill="#000000">Orphan (Object)</text>
<text text-anchor="middle" x="1313.7965" y="-1077.2577" font-family="Times,serif" font-size="14.00" fill="#000000">[ID]</text>
</g>
</g>
</svg>